<svg width="17" height="17" viewBox="0 0 17 17" fill="none" xmlns="http://www.w3.org/2000/svg">
<mask id="mask0_466_3351" style="mask-type:alpha" maskUnits="userSpaceOnUse" x="0" y="0" width="17" height="17">
<rect width="17" height="17" fill="#D9D9D9"/>
</mask>
<g mask="url(#mask0_466_3351)">
<path d="M8.50065 8.50004C7.72148 8.50004 7.05447 8.22261 6.49961 7.66775C5.94475 7.11289 5.66732 6.44587 5.66732 5.66671C5.66732 4.88754 5.94475 4.22053 6.49961 3.66567C7.05447 3.1108 7.72148 2.83337 8.50065 2.83337C9.27982 2.83337 9.94683 3.1108 10.5017 3.66567C11.0566 4.22053 11.334 4.88754 11.334 5.66671C11.334 6.44587 11.0566 7.11289 10.5017 7.66775C9.94683 8.22261 9.27982 8.50004 8.50065 8.50004ZM2.83398 14.1667V12.1834C2.83398 11.782 2.93728 11.4131 3.14388 11.0766C3.35048 10.7401 3.62496 10.4834 3.96732 10.3063C4.69926 9.94032 5.44301 9.66584 6.19857 9.48285C6.95412 9.29987 7.72148 9.20837 8.50065 9.20837C9.27982 9.20837 10.0472 9.29987 10.8027 9.48285C11.5583 9.66584 12.302 9.94032 13.034 10.3063C13.3763 10.4834 13.6508 10.7401 13.8574 11.0766C14.064 11.4131 14.1673 11.782 14.1673 12.1834V14.1667H2.83398Z" fill="white"/>
</g>
</svg>
